<?xml version="1.0"?>
<svg version="1.1" xmlns="http://www.w3.org/2000/svg" width="247px" height="36px" style="border: none"><path fill="#ffffff" d="M77.576,22.728c0,2.88-0.984,5.04-2.616,6.432c-1.488,1.248-3.576,1.8-5.952,1.8l-4.584,0c-0.48,0-0.696-0.12-0.696-0.672l0-15.216c0-0.504,0.144-0.72,0.744-0.72l3.456,0c2.76,0,4.632,0.312,6.216,1.224c2.16,1.248,3.432,3.6,3.432,7.152z M74.264,22.704c0-2.184-0.648-3.84-1.872-4.752c-0.984-0.72-2.256-0.984-3.792-0.984l-1.752,0l0,11.4l1.848,0c1.656,0,3.048-0.264,4.056-1.272c0.96-0.96,1.512-2.4,1.512-4.392z M88.124,19.416c0,0.072,0,0.144-0.024,0.216l-0.264,1.704c-0.024,0.216-0.144,0.312-0.336,0.312l-0.096,0c-0.192-0.048-0.432-0.072-0.648-0.072c-0.816,0-1.704,0.432-2.304,1.152l0,7.632c0,0.384-0.168,0.6-0.576,0.6l-1.752,0c-0.384,0-0.576-0.192-0.576-0.6l0-7.488l0-2.952c0-0.48,0.24-0.6,0.6-0.6l1.536,0c0.384,0,0.6,0.12,0.6,0.456l0.024,0.768c0.744-0.936,1.56-1.536,2.904-1.536c0.192,0,0.456,0.048,0.672,0.096c0.168,0.048,0.24,0.12,0.24,0.312z M102.128,25.128c0,3.456-2.112,6.12-5.856,6.12c-3.912,0-5.712-2.64-5.712-6.144c0-3.456,2.112-6.096,5.856-6.096c3.912,0,5.712,2.592,5.712,6.12z M99.128,25.128c0-1.968-0.624-3.84-2.736-3.84c-2.136,0-2.832,1.848-2.832,3.768c0,1.968,0.6,3.912,2.736,3.912c2.112,0,2.832-1.872,2.832-3.84z M116.324,30.336c0,0.408-0.144,0.624-0.576,0.624l-1.728,0c-0.432,0-0.576-0.216-0.576-0.624l0-6.528c0-1.32-0.36-2.256-1.824-2.256c-0.936,0-2.088,0.504-2.832,1.152l0,7.656c0,0.408-0.168,0.6-0.576,0.6l-1.752,0c-0.36,0-0.576-0.192-0.576-0.576l0-10.464c0-0.384,0.168-0.6,0.6-0.6l1.56,0c0.336,0,0.552,0.096,0.576,0.456l0.024,0.624c1.104-0.888,2.496-1.392,3.888-1.392c2.688,0,3.792,1.68,3.792,4.296l0,7.032z M131.12,14.76l0,0.144l-0.168,1.44c-0.048,0.432-0.312,0.504-0.816,0.504l-6.024,0l0,4.344l5.544,0c0.456,0,0.6,0.192,0.6,0.528l0,1.368c0,0.408-0.168,0.576-0.576,0.576l-5.568,0l0,6.696c0,0.432-0.168,0.6-0.576,0.6l-1.872,0c-0.48,0-0.648-0.12-0.648-0.648l0-15.36c0-0.384,0.168-0.6,0.552-0.6l9.048,0c0.36,0,0.504,0.12,0.504,0.408z M138.212,16.272c0,0.936-0.816,1.512-1.608,1.512s-1.632-0.528-1.632-1.488s0.792-1.536,1.632-1.536c0.816,0,1.608,0.552,1.608,1.512z M138.068,30.36c0,0.432-0.192,0.6-0.6,0.6l-1.68,0c-0.432,0-0.624-0.168-0.624-0.6l0-10.488c0-0.408,0.24-0.552,0.624-0.552l1.68,0c0.384,0,0.6,0.12,0.6,0.552l0,10.488z M145.568,30.36c0,0.408-0.192,0.6-0.528,0.6l-1.824,0c-0.336,0-0.552-0.168-0.552-0.576l0-15.744c0-0.408,0.168-0.528,0.48-0.576l1.728-0.24c0.048,0,0.12-0.024,0.168-0.024c0.288,0,0.528,0.144,0.528,0.528l0,16.032z M167.396,30.36c0,0.432-0.168,0.6-0.576,0.6l-1.68,0c-0.432,0-0.624-0.168-0.624-0.6l0-6.576c0-1.296-0.336-2.28-1.8-2.28c-0.912,0-1.968,0.48-2.712,1.08c0.048,0.216,0.096,3.432,0.096,3.768l0,4.008c0,0.432-0.168,0.6-0.576,0.6l-1.584,0c-0.432,0-0.624-0.168-0.624-0.6l0-6.576c0-1.272-0.264-2.28-1.728-2.28c-0.936,0-1.896,0.528-2.664,1.2l0,7.656c0,0.432-0.192,0.6-0.6,0.6l-1.68,0c-0.432,0-0.624-0.168-0.624-0.6l0-10.488c0-0.384,0.216-0.552,0.576-0.552l1.56,0c0.36,0,0.576,0.12,0.6,0.456l0.024,0.6c0.984-0.864,2.28-1.368,3.528-1.368c1.464,0,2.496,0.648,3.048,1.56c1.08-1.032,2.64-1.56,4.104-1.56c1.752,0,2.856,0.864,3.36,1.8c0.456,0.888,0.576,1.944,0.576,3.48l0,6.072z M179.6,27.528c0,2.52-2.184,3.72-4.632,3.72c-1.248,0-2.616-0.36-3.696-0.84c-0.216-0.096-0.288-0.24-0.288-0.384c0-0.072,0.024-0.144,0.048-0.216l0.384-1.224c0.072-0.24,0.192-0.336,0.336-0.336c0.072,0,0.144,0,0.264,0.048c1.056,0.432,2.184,0.744,3.024,0.744c1.056,0,1.776-0.48,1.776-1.272c0-0.672-0.456-1.032-1.44-1.416l-1.896-0.72c-1.368-0.504-2.472-1.56-2.472-3.192c0-2.352,2.208-3.432,4.344-3.432c1.152,0,2.28,0.192,3.48,0.72c0.192,0.096,0.288,0.192,0.288,0.336c0,0.072-0.024,0.144-0.048,0.24l-0.408,1.296c-0.048,0.168-0.168,0.264-0.336,0.264c-0.072,0-0.168-0.024-0.24-0.048c-0.792-0.312-1.824-0.576-2.592-0.576c-1.008,0-1.512,0.552-1.512,1.104c0,0.528,0.264,0.864,1.176,1.224l2.16,0.888c1.272,0.528,2.28,1.512,2.28,3.072z"/><path fill="#" d=""/></svg>
